<?xml version="1.0" encoding="UTF-8"?>
<svg width="24px" height="24px" viewBox="0 0 24 24" xmlns="http://www.w3.org/2000/svg">
    <path d="M13.483 0a1.374 1.374 0 0 0-.961.438L7.116 6.226l-3.854 4.126a1.374 1.374 0 0 0-0.39.943v1.85a1.374 1.374 0 0 0 1.374 1.374h1.85L8.39 12.01l2.183-2.183 4.125-4.125a1.374 1.374 0 0 0 0-1.944L13.483 0zm-2.766 9.783L8.51 12.01l2.183 2.183 5.965-5.965a1.374 1.374 0 0 0 0-1.944L15.443 5.07l-4.726 4.713z" fill="#FFFFFF" fill-rule="evenodd"/>
    <path d="M4.365 15.375h2.183v-1.85H4.365v1.85zm0 2.183h2.183v-1.85H4.365v1.85zm0 2.183h2.183v-1.85H4.365v1.85zm4.366 0h2.183v-1.85H8.73v1.85zm0-2.183h2.183v-1.85H8.73v1.85zm0-2.183h2.183v-1.85H8.73v1.85zm4.366 4.366h2.183v-1.85h-2.183v1.85zm0-2.183h2.183v-1.85h-2.183v1.85zm0-2.183h2.183v-1.85h-2.183v1.85z" fill="#FFFFFF"/>
</svg>
